REM MD5 784e360ce38045acf3b3b13b1c1d06d9
FILE "Next Demo 7 (Italy) (En,It).bin" BINARY
  TRACK 01 MODE2/2352
    INDEX 01 00:00:00
  TRACK 02 AUDIO
    INDEX 00 33:15:19
    INDEX 01 33:17:19
  TRACK 03 AUDIO
    INDEX 00 36:13:43
    INDEX 01 36:15:43
  TRACK 04 AUDIO
    INDEX 00 39:11:67
    INDEX 01 39:13:67
  TRACK 05 AUDIO
    INDEX 00 40:34:46
    INDEX 01 40:36:46
REM LEADOUT 43:37:46
